# Exported from ProBuilder
# http://www.procore3d.com/probuilder
# 9/19/2017 12:04:53 PM

mtllib ./Cube_test.mtl
o Cube_test

g Cube
v -46 2 -9.5
v -46 2 -5.5
v -45 2 -9.5
v -45 2 -5.5
v -46 6 -5.5
v -46 6 -9.5
v -45 6 -5.5
v -45 6 -9.5
v -50 2 -5.5
v -50 2 -9.5
v -51 2 -5.5
v -51 2 -9.5
v -50 6 -9.5
v -50 6 -5.5
v -51 6 -9.5
v -51 6 -5.5
v -46 6 -5.5
v -47 6 -5.5
v -47 6 -9.5
v -46 6 -9.5
v -46 2 -9.5
v -47 2 -9.5
v -47 2 -5.5
v -46 2 -5.5
v -47 2 -9.5
v -46 2 -9.5
v -46 2 -10.5
v -47 2 -10.5
v -46 6 -9.5
v -47 6 -9.5
v -47 6 -10.5
v -46 6 -10.5
v -46 2 -5.5
v -47 2 -5.5
v -47 2 -4.5
v -46 2 -4.5
v -47 6 -5.5
v -46 6 -5.5
v -46 6 -4.5
v -47 6 -4.5
v -50 6 -9.5
v -49 6 -9.5
v -49 6 -5.5
v -50 6 -5.5
v -49 6 -9.5
v -47 6 -9.5
v -47 6 -5.5
v -49 6 -5.5
v -50 2 -9.5
v -50 2 -5.5
v -49 2 -5.5
v -49 2 -9.5
v -49 2 -5.5
v -47 2 -5.5
v -47 2 -9.5
v -49 2 -9.5
v -50 2 -10.5
v -50 2 -9.5
v -49 2 -9.5
v -49 2 -10.5
v -49 2 -9.5
v -47 2 -9.5
v -47 2 -10.5
v -49 2 -10.5
v -50 6 -10.5
v -49 6 -10.5
v -49 6 -9.5
v -50 6 -9.5
v -49 6 -10.5
v -47 6 -10.5
v -47 6 -9.5
v -49 6 -9.5
v -50 2 -5.5
v -50 2 -4.5
v -49 2 -4.5
v -49 2 -5.5
v -49 2 -4.5
v -47 2 -4.5
v -47 2 -5.5
v -49 2 -5.5
v -50 6 -5.5
v -49 6 -5.5
v -49 6 -4.5
v -50 6 -4.5
v -49 6 -5.5
v -47 6 -5.5
v -47 6 -4.5
v -49 6 -4.5
v -51 5 -9.5
v -51 6 -9.5
v -51 6 -5.5
v -51 5 -5.5
v -45 5 -5.5
v -45 6 -5.5
v -45 6 -9.5
v -45 5 -9.5
v -46 6 -9.5
v -46 5 -9.5
v -45 5 -9.5
v -45 6 -9.5
v -46 5 -5.5
v -46 6 -5.5
v -45 6 -5.5
v -45 5 -5.5
v -50 6 -9.5
v -50 5 -9.5
v -50 5 -10.5
v -50 6 -10.5
v -46 5 -9.5
v -46 6 -9.5
v -46 6 -10.5
v -46 5 -10.5
v -50 6 -5.5
v -50 5 -5.5
v -51 5 -5.5
v -51 6 -5.5
v -50 5 -9.5
v -50 6 -9.5
v -51 6 -9.5
v -51 5 -9.5
v -46 6 -5.5
v -46 5 -5.5
v -46 5 -4.5
v -46 6 -4.5
v -50 5 -5.5
v -50 6 -5.5
v -50 6 -4.5
v -50 5 -4.5
v -47 5 -4.5
v -47 6 -4.5
v -46 6 -4.5
v -46 5 -4.5
v -46 5 -10.5
v -46 6 -10.5
v -47 6 -10.5
v -47 5 -11
v -49 5 -4.5
v -49 6 -4.5
v -47 6 -4.5
v -47 5 -4.5
v -50 5 -4.5
v -50 6 -4.5
v -49 6 -4.5
v -49 5 -4.5
v -47 5 -11
v -47 6 -10.5
v -49 6 -10.5
v -49 5 -11
v -49 5 -11
v -49 6 -10.5
v -50 6 -10.5
v -50 5 -10.5
v -51 2 -5.5
v -51 2 -9.5
v -51 3 -9.5
v -51 3 -5.5
v -51 3 -9.5
v -51 5 -9.5
v -51 5 -5.5
v -51 3 -5.5
v -45 2 -5.5
v -45 3 -5.5
v -45 3 -9.5
v -45 2 -9.5
v -45 3 -5.5
v -45 5 -5.5
v -45 5 -9.5
v -45 3 -9.5
v -45 2 -9.5
v -45 3 -9.5
v -46 3 -9.5
v -46 2 -9.5
v -45 3 -9.5
v -45 5 -9.5
v -46 5 -9.5
v -46 3 -9.5
v -45 2 -5.5
v -46 2 -5.5
v -46 3 -5.5
v -45 3 -5.5
v -46 3 -5.5
v -46 5 -5.5
v -45 5 -5.5
v -45 3 -5.5
v -50 2 -9.5
v -50 2 -10.5
v -50 3 -10.5
v -50 3 -9.5
v -50 3 -10.5
v -50 5 -10.5
v -50 5 -9.5
v -50 3 -9.5
v -46 2 -9.5
v -46 3 -9.5
v -46 3 -10.5
v -46 2 -10.5
v -46 3 -9.5
v -46 5 -9.5
v -46 5 -10.5
v -46 3 -10.5
v -50 2 -5.5
v -51 2 -5.5
v -51 3 -5.5
v -50 3 -5.5
v -51 3 -5.5
v -51 5 -5.5
v -50 5 -5.5
v -50 3 -5.5
v -50 2 -9.5
v -50 3 -9.5
v -51 3 -9.5
v -51 2 -9.5
v -50 3 -9.5
v -50 5 -9.5
v -51 5 -9.5
v -51 3 -9.5
v -46 2 -4.5
v -46 3 -4.5
v -46 3 -5.5
v -46 2 -5.5
v -46 3 -4.5
v -46 5 -4.5
v -46 5 -5.5
v -46 3 -5.5
v -50 2 -4.5
v -50 2 -5.5
v -50 3 -5.5
v -50 3 -4.5
v -50 3 -5.5
v -50 5 -5.5
v -50 5 -4.5
v -50 3 -4.5
v -46 2 -4.5
v -47 2 -4.5
v -47 3 -4.5
v -46 3 -4.5
v -47 3 -4.5
v -47 5 -4.5
v -46 5 -4.5
v -46 3 -4.5
v -46 2 -10.5
v -46 3 -10.5
v -47 3 -11
v -47 2 -10.5
v -46 3 -10.5
v -46 5 -10.5
v -47 5 -11
v -47 3 -11
v -47 2 -4.5
v -49 2 -4.5
v -49 3 -4.5
v -47 3 -4.5
v -49 3 -4.5
v -49 5 -4.5
v -47 5 -4.5
v -47 3 -4.5
v -49 2 -4.5
v -50 2 -4.5
v -50 3 -4.5
v -49 3 -4.5
v -50 3 -4.5
v -50 5 -4.5
v -49 5 -4.5
v -49 3 -4.5
v -47 2 -10.5
v -47 3 -11
v -49 3 -11
v -49 2 -10.5
v -47 3 -12
v -47 5 -12
v -49 5 -12
v -49 3 -12
v -49 2 -10.5
v -49 3 -11
v -50 3 -10.5
v -50 2 -10.5
v -49 3 -11
v -49 5 -11
v -50 5 -10.5
v -50 3 -10.5
v -47 3 -11
v -47 5 -11
v -47 3 -12
v -47 5 -12
v -47 5 -11
v -49 5 -11
v -47 5 -12
v -49 5 -12
v -49 5 -11
v -49 3 -11
v -49 5 -12
v -49 3 -12
v -49 3 -11
v -47 3 -11
v -49 3 -12
v -47 3 -12

vn 0 -1 0
vn 0 -1 0
vn 0 -1 0
vn 0 -1 0
vn 0 1 0
vn 0 1 0
vn 0 1 0
vn 0 1 0
vn 0 -1 0
vn 0 -1 0
vn 0 -1 0
vn 0 -1 0
vn 0 1 0
vn 0 1 0
vn 0 1 0
vn 0 1 0
vn 0 1 0
vn 0 1 0
vn 0 1 0
vn 0 1 0
vn 0 -1 0
vn 0 -1 0
vn 0 -1 0
vn 0 -1 0
vn 0 -1 0
vn 0 -1 0
vn 0 -1 0
vn 0 -1 0
vn 0 1 0
vn 0 1 0
vn 0 1 0
vn 0 1 0
vn 0 -1 0
vn 0 -1 0
vn 0 -1 0
vn 0 -1 0
vn 0 1 0
vn 0 1 0
vn 0 1 0
vn 0 1 0
vn 0 1 0
vn 0 1 0
vn 0 1 0
vn 0 1 0
vn 0 1 0
vn 0 1 0
vn 0 1 0
vn 0 1 0
vn 0 -1 0
vn 0 -1 0
vn 0 -1 0
vn 0 -1 0
vn 0 -1 0
vn 0 -1 0
vn 0 -1 0
vn 0 -1 0
vn 0 -1 0
vn 0 -1 0
vn 0 -1 0
vn 0 -1 0
vn 0 -1 0
vn 0 -1 0
vn 0 -1 0
vn 0 -1 0
vn 0 1 0
vn 0 1 0
vn 0 1 0
vn 0 1 0
vn 0 1 0
vn 0 1 0
vn 0 1 0
vn 0 1 0
vn 0 -1 0
vn 0 -1 0
vn 0 -1 0
vn 0 -1 0
vn 0 -1 0
vn 0 -1 0
vn 0 -1 0
vn 0 -1 0
vn 0 1 0
vn 0 1 0
vn 0 1 0
vn 0 1 0
vn 0 1 0
vn 0 1 0
vn 0 1 0
vn 0 1 0
vn -1 0 0
vn -1 0 0
vn -1 0 0
vn -1 0 0
vn 1 0 0
vn 1 0 0
vn 1 0 0
vn 1 0 0
vn 0 0 -1
vn 0 0 -1
vn 0 0 -1
vn 0 0 -1
vn 0 0 1
vn 0 0 1
vn 0 0 1
vn 0 0 1
vn -1 0 0
vn -1 0 0
vn -1 0 0
vn -1 0 0
vn 1 0 0
vn 1 0 0
vn 1 0 0
vn 1 0 0
vn 0 0 1
vn 0 0 1
vn 0 0 1
vn 0 0 1
vn 0 0 -1
vn 0 0 -1
vn 0 0 -1
vn 0 0 -1
vn 1 0 0
vn 1 0 0
vn 1 0 0
vn 1 0 0
vn -1 0 0
vn -1 0 0
vn -1 0 0
vn -1 0 0
vn 0 0 1
vn 0 0 1
vn 0 0 1
vn 0 0 1
vn 0.2357023 0.2357023 -0.9428091
vn 0 0 -1
vn 0.2357023 0.2357023 -0.9428091
vn 0.4082483 0.4082483 -0.8164966
vn 0 0 1
vn 0 0 1
vn 0 0 1
vn 0 0 1
vn 0 0 1
vn 0 0 1
vn 0 0 1
vn 0 0 1
vn 0 0.4472136 -0.8944272
vn 0 0.4472136 -0.8944272
vn 0 0.4472136 -0.8944272
vn 0 0.4472136 -0.8944272
vn -0.2357023 0.2357023 -0.9428091
vn 0 0.4472136 -0.8944272
vn -0.2357023 0.2357023 -0.9428091
vn -0.4472136 0 -0.8944272
vn -1 0 0
vn -1 0 0
vn -1 0 0
vn -1 0 0
vn -1 0 0
vn -1 0 0
vn -1 0 0
vn -1 0 0
vn 1 0 0
vn 1 0 0
vn 1 0 0
vn 1 0 0
vn 1 0 0
vn 1 0 0
vn 1 0 0
vn 1 0 0
vn 0 0 -1
vn 0 0 -1
vn 0 0 -1
vn 0 0 -1
vn 0 0 -1
vn 0 0 -1
vn 0 0 -1
vn 0 0 -1
vn 0 0 1
vn 0 0 1
vn 0 0 1
vn 0 0 1
vn 0 0 1
vn 0 0 1
vn 0 0 1
vn 0 0 1
vn -1 0 0
vn -1 0 0
vn -1 0 0
vn -1 0 0
vn -1 0 0
vn -1 0 0
vn -1 0 0
vn -1 0 0
vn 1 0 0
vn 1 0 0
vn 1 0 0
vn 1 0 0
vn 1 0 0
vn 1 0 0
vn 1 0 0
vn 1 0 0
vn 0 0 1
vn 0 0 1
vn 0 0 1
vn 0 0 1
vn 0 0 1
vn 0 0 1
vn 0 0 1
vn 0 0 1
vn 0 0 -1
vn 0 0 -1
vn 0 0 -1
vn 0 0 -1
vn 0 0 -1
vn 0 0 -1
vn 0 0 -1
vn 0 0 -1
vn 1 0 0
vn 1 0 0
vn 1 0 0
vn 1 0 0
vn 1 0 0
vn 1 0 0
vn 1 0 0
vn 1 0 0
vn -1 0 0
vn -1 0 0
vn -1 0 0
vn -1 0 0
vn -1 0 0
vn -1 0 0
vn -1 0 0
vn -1 0 0
vn 0 0 1
vn 0 0 1
vn 0 0 1
vn 0 0 1
vn 0 0 1
vn 0 0 1
vn 0 0 1
vn 0 0 1
vn 0.2357023 -0.2357023 -0.9428091
vn 0.4472136 0 -0.8944272
vn 0.2357023 -0.2357023 -0.9428091
vn 0 -0.4472136 -0.8944272
vn 0.4472136 0 -0.8944272
vn 0.4472136 0 -0.8944272
vn 0.4472136 0 -0.8944272
vn 0.4472136 0 -0.8944272
vn 0 0 1
vn 0 0 1
vn 0 0 1
vn 0 0 1
vn 0 0 1
vn 0 0 1
vn 0 0 1
vn 0 0 1
vn 0 0 1
vn 0 0 1
vn 0 0 1
vn 0 0 1
vn 0 0 1
vn 0 0 1
vn 0 0 1
vn 0 0 1
vn 0 -0.4472136 -0.8944272
vn 0 -0.4472136 -0.8944272
vn 0 -0.4472136 -0.8944272
vn 0 -0.4472136 -0.8944272
vn 0 0 -1
vn 0 0 -1
vn 0 0 -1
vn 0 0 -1
vn -0.2357023 -0.2357023 -0.9428091
vn -0.4082483 -0.4082483 -0.8164966
vn -0.2357023 -0.2357023 -0.9428091
vn 0 0 -1
vn -0.4472136 0 -0.8944272
vn -0.4472136 0 -0.8944272
vn -0.4472136 0 -0.8944272
vn -0.4472136 0 -0.8944272
vn 1 0 0
vn 1 0 0
vn 1 0 0
vn 1 0 0
vn 0 1 0
vn 0 1 0
vn 0 1 0
vn 0 1 0
vn -1 0 0
vn -1 0 0
vn -1 0 0
vn -1 0 0
vn 0 -1 0
vn 0 -1 0
vn 0 -1 0
vn 0 -1 0

vt 3 -4
vt 3 0
vt 4 -4
vt 4 0
vt -3 0
vt -3 -4
vt -4 0
vt -4 -4
vt -1 0
vt -1 -4
vt -2 0
vt -2 -4
vt 1 -4
vt 1 0
vt 2 -4
vt 2 0
vt -3 0
vt -2 0
vt -2 -4
vt -3 -4
vt -3 -4
vt -2 -4
vt -2 0
vt -3 0
vt -2 -4
vt -3 -4
vt -3 -5
vt -2 -5
vt -3 -4
vt -2 -4
vt -2 -5
vt -3 -5
vt -3 0
vt -2 0
vt -2 1
vt -3 1
vt -2 0
vt -3 0
vt -3 1
vt -2 1
vt 1 -4
vt 0 -4
vt 0 0
vt 1 0
vt 0 -4
vt -2 -4
vt -2 0
vt 0 0
vt 1 -4
vt 1 0
vt 0 0
vt 0 -4
vt 0 0
vt -2 0
vt -2 -4
vt 0 -4
vt 1 -5
vt 1 -4
vt 0 -4
vt 0 -5
vt 0 -4
vt -2 -4
vt -2 -5
vt 0 -5
vt 1 -5
vt 0 -5
vt 0 -4
vt 1 -4
vt 0 -5
vt -2 -5
vt -2 -4
vt 0 -4
vt 1 0
vt 1 1
vt 0 1
vt 0 0
vt 0 1
vt -2 1
vt -2 0
vt 0 0
vt 1 0
vt 0 0
vt 0 1
vt 1 1
vt 0 0
vt -2 0
vt -2 1
vt 0 1
vt -4 3
vt -4 4
vt 0 4
vt 0 3
vt 0 3
vt 0 4
vt -4 4
vt -4 3
vt 3 4
vt 3 3
vt 4 3
vt 4 4
vt 3 3
vt 3 4
vt 4 4
vt 4 3
vt -4 4
vt -4 3
vt -5 3
vt -5 4
vt -4 3
vt -4 4
vt -5 4
vt -5 3
vt -1 4
vt -1 3
vt -2 3
vt -2 4
vt -1 3
vt -1 4
vt -2 4
vt -2 3
vt 0 4
vt 0 3
vt 1 3
vt 1 4
vt 0 3
vt 0 4
vt 1 4
vt 1 3
vt 2 3
vt 2 4
vt 3 4
vt 3 3
vt 3 3
vt 3 4
vt 2 4
vt 2 3
vt 0 3
vt 0 4
vt 2 4
vt 2 3
vt -1 3
vt -1 4
vt 0 4
vt 0 3
vt 2 3
vt 2 4
vt 0 4
vt 0 3
vt 0 3
vt 0 4
vt -1 4
vt -1 3
vt 0 0
vt -4 0
vt -4 1
vt 0 1
vt -4 1
vt -4 3
vt 0 3
vt 0 1
vt 0 0
vt 0 1
vt -4 1
vt -4 0
vt 0 1
vt 0 3
vt -4 3
vt -4 1
vt 4 0
vt 4 1
vt 3 1
vt 3 0
vt 4 1
vt 4 3
vt 3 3
vt 3 1
vt 4 0
vt 3 0
vt 3 1
vt 4 1
vt 3 1
vt 3 3
vt 4 3
vt 4 1
vt -4 0
vt -5 0
vt -5 1
vt -4 1
vt -5 1
vt -5 3
vt -4 3
vt -4 1
vt -4 0
vt -4 1
vt -5 1
vt -5 0
vt -4 1
vt -4 3
vt -5 3
vt -5 1
vt -1 0
vt -2 0
vt -2 1
vt -1 1
vt -2 1
vt -2 3
vt -1 3
vt -1 1
vt -1 0
vt -1 1
vt -2 1
vt -2 0
vt -1 1
vt -1 3
vt -2 3
vt -2 1
vt 1 0
vt 1 1
vt 0 1
vt 0 0
vt 1 1
vt 1 3
vt 0 3
vt 0 1
vt 1 0
vt 0 0
vt 0 1
vt 1 1
vt 0 1
vt 0 3
vt 1 3
vt 1 1
vt 3 0
vt 2 0
vt 2 1
vt 3 1
vt 2 1
vt 2 3
vt 3 3
vt 3 1
vt 3 0
vt 3 1
vt 2 1
vt 2 0
vt 3 1
vt 3 3
vt 2 3
vt 2 1
vt 2 0
vt 0 0
vt 0 1
vt 2 1
vt 0 1
vt 0 3
vt 2 3
vt 2 1
vt 0 0
vt -1 0
vt -1 1
vt 0 1
vt -1 1
vt -1 3
vt 0 3
vt 0 1
vt 2 0
vt 2 1
vt 0 1
vt 0 0
vt -2 1
vt -2 3
vt 0 3
vt 0 1
vt 0 0
vt 0 1
vt -1 1
vt -1 0
vt 0 1
vt 0 3
vt -1 3
vt -1 1
vt 5.5 1
vt 5.5 3
vt 6.5 1
vt 6.5 3
vt -2 -5.5
vt 0 -5.5
vt -2 -6.5
vt 0 -6.5
vt -5.5 3
vt -5.5 1
vt -6.5 3
vt -6.5 1
vt 0 -5.5
vt 2 -5.5
vt 0 -6.5
vt 2 -6.5

g Cube
usemtl Default_Prototype
f 3/3/3 4/4/4 2/2/2 1/1/1
f 7/7/7 8/8/8 6/6/6 5/5/5
f 11/11/11 12/12/12 10/10/10 9/9/9
f 15/15/15 16/16/16 14/14/14 13/13/13
f 18/18/18 17/17/17 20/20/20 19/19/19
f 21/21/21 24/24/24 23/23/23 22/22/22
f 27/27/27 26/26/26 25/25/25 28/28/28
f 30/30/30 29/29/29 32/32/32 31/31/31
f 33/33/33 36/36/36 35/35/35 34/34/34
f 40/40/40 39/39/39 38/38/38 37/37/37
f 44/44/44 43/43/43 42/42/42 41/41/41
f 48/48/48 47/47/47 46/46/46 45/45/45
f 52/52/52 51/51/51 50/50/50 49/49/49
f 55/55/55 54/54/54 53/53/53 56/56/56
f 60/60/60 59/59/59 58/58/58 57/57/57
f 63/63/63 62/62/62 61/61/61 64/64/64
f 68/68/68 67/67/67 66/66/66 65/65/65
f 72/72/72 71/71/71 70/70/70 69/69/69
f 76/76/76 75/75/75 74/74/74 73/73/73
f 79/79/79 78/78/78 77/77/77 80/80/80
f 84/84/84 83/83/83 82/82/82 81/81/81
f 88/88/88 87/87/87 86/86/86 85/85/85
f 91/91/91 90/90/90 89/89/89 92/92/92
f 96/96/96 95/95/95 94/94/94 93/93/93
f 98/98/98 97/97/97 100/100/100 99/99/99
f 103/103/103 102/102/102 101/101/101 104/104/104
f 105/105/105 108/108/108 107/107/107 106/106/106
f 112/112/112 111/111/111 110/110/110 109/109/109
f 113/113/113 116/116/116 115/115/115 114/114/114
f 120/120/120 119/119/119 118/118/118 117/117/117
f 122/122/122 121/121/121 124/124/124 123/123/123
f 127/127/127 126/126/126 125/125/125 128/128/128
f 131/131/131 130/130/130 129/129/129 132/132/132
f 136/136/136 135/135/135 134/134/134 133/133/133
f 139/139/139 138/138/138 137/137/137 140/140/140
f 143/143/143 142/142/142 141/141/141 144/144/144
f 148/148/148 147/147/147 146/146/146 145/145/145
f 152/152/152 151/151/151 150/150/150 149/149/149
f 156/156/156 155/155/155 154/154/154 153/153/153
f 159/159/159 158/158/158 157/157/157 160/160/160
f 164/164/164 163/163/163 162/162/162 161/161/161
f 168/168/168 167/167/167 166/166/166 165/165/165
f 172/172/172 171/171/171 170/170/170 169/169/169
f 176/176/176 175/175/175 174/174/174 173/173/173
f 180/180/180 179/179/179 178/178/178 177/177/177
f 183/183/183 182/182/182 181/181/181 184/184/184
f 188/188/188 187/187/187 186/186/186 185/185/185
f 191/191/191 190/190/190 189/189/189 192/192/192
f 196/196/196 195/195/195 194/194/194 193/193/193
f 200/200/200 199/199/199 198/198/198 197/197/197
f 204/204/204 203/203/203 202/202/202 201/201/201
f 207/207/207 206/206/206 205/205/205 208/208/208
f 212/212/212 211/211/211 210/210/210 209/209/209
f 216/216/216 215/215/215 214/214/214 213/213/213
f 220/220/220 219/219/219 218/218/218 217/217/217
f 224/224/224 223/223/223 222/222/222 221/221/221
f 228/228/228 227/227/227 226/226/226 225/225/225
f 231/231/231 230/230/230 229/229/229 232/232/232
f 236/236/236 235/235/235 234/234/234 233/233/233
f 239/239/239 238/238/238 237/237/237 240/240/240
f 244/244/244 243/243/243 242/242/242 241/241/241
f 248/248/248 247/247/247 246/246/246 245/245/245
f 252/252/252 251/251/251 250/250/250 249/249/249
f 255/255/255 254/254/254 253/253/253 256/256/256
f 260/260/260 259/259/259 258/258/258 257/257/257
f 263/263/263 262/262/262 261/261/261 264/264/264
f 268/268/268 267/267/267 266/266/266 265/265/265
f 272/272/272 271/271/271 270/270/270 269/269/269
f 276/276/276 275/275/275 274/274/274 273/273/273
f 280/280/280 279/279/279 278/278/278 277/277/277
f 283/283/283 284/284/284 282/282/282 281/281/281
f 287/287/287 288/288/288 286/286/286 285/285/285
f 291/291/291 292/292/292 290/290/290 289/289/289
f 295/295/295 296/296/296 294/294/294 293/293/293

